<svg width="10" height="10" viewBox="0 0 10 10" fill="none" xmlns="http://www.w3.org/2000/svg">
<path d="M7.74104 5.41572C7.53532 5.21 7.20278 5.21 6.99705 5.41572L6.15834 6.25439C5.76951 6.13864 5.04393 5.87557 4.58406 5.41572C4.12419 4.95587 3.86111 4.23032 3.74535 3.8415L4.58406 3.00283C4.78979 2.79711 4.78979 2.46458 4.58406 2.25886L2.4794 0.154291C2.27367 -0.0514305 1.94113 -0.0514305 1.7354 0.154291L0.308446 1.58119C0.108504 1.78112 -0.00409538 2.05577 0.000113938 2.33621C0.0122157 3.08543 0.21058 5.68773 2.26157 7.73864C4.31256 9.78954 6.91497 9.98737 7.66475 10C7.66738 10 7.67685 10 7.67948 10C7.9573 10 8.21986 9.89056 8.41875 9.69168L9.8457 8.26478C10.0514 8.05906 10.0514 7.72654 9.8457 7.52082L7.74104 5.41572ZM7.67422 8.94719C7.01757 8.93614 4.77085 8.75988 3.00556 6.99415C1.2345 5.22315 1.06297 2.96863 1.05244 2.32516L2.1074 1.27024L3.46806 2.63085L2.78773 3.31115C2.66198 3.43637 2.60831 3.61736 2.64462 3.79099C2.65724 3.8515 2.9661 5.28629 3.83954 6.15968C4.71297 7.03308 6.14782 7.34193 6.20833 7.35455C6.38354 7.39191 6.56296 7.33772 6.68819 7.21197L7.36905 6.53167L8.72971 7.89227L7.67422 8.94719Z" fill="#101010"/>
</svg>
