<svg width="28" height="28" viewBox="0 0 28 28" fill="none" xmlns="http://www.w3.org/2000/svg">
<g clip-path="url(#clip0)">
<path d="M25.22 1.49583C21.7333 -0.58158 17.2215 -0.466244 13.7972 1.66214C11.8733 2.85794 10.3862 4.58262 8.69972 6.06733C7.22195 7.36829 5.50351 8.29628 3.97729 9.5238C-1.55763 13.9755 -1.02952 25.9826 6.76427 27.5775C10.1427 28.2689 14.7601 28.4906 16.7458 25.1908C18.639 22.0446 19.2741 18.8261 22.9734 17.1549C24.2625 16.5725 26.4173 16.6019 27.2906 15.3256C28.3927 13.715 27.0252 12.042 26.2957 10.6385C25.3557 8.82981 25.1585 7.04656 25.82 5.10636C26.3832 3.45419 26.7797 2.71203 25.22 1.49583Z" fill="#FCD542"/>
<path opacity="0.1" d="M25.0216 9.44395C25.0216 7.03486 23.0686 5.08186 20.6595 5.08186C19.8913 5.08186 19.17 5.28108 18.5432 5.62966C17.1641 4.98151 15.6244 4.61855 13.9998 4.61855C8.09348 4.61855 3.30542 9.40655 3.30542 15.3129C3.30542 21.2193 8.09348 26.0073 13.9998 26.0073C19.9061 26.0073 24.6941 21.2193 24.6941 15.3129C24.6941 14.1646 24.5124 13.059 24.1775 12.0222C24.7078 11.2999 25.0216 10.4087 25.0216 9.44395Z" fill="#2626BC"/>
<path d="M13.9998 24.6948C19.9061 24.6948 24.6941 19.9067 24.6941 14.0004C24.6941 8.09407 19.9061 3.30605 13.9998 3.30605C8.09345 3.30605 3.30542 8.09407 3.30542 14.0004C3.30542 19.9067 8.09345 24.6948 13.9998 24.6948Z" fill="#2F80ED"/>
<path d="M11.4998 23.0363C11.4375 23.3365 11.5364 23.9616 11.5375 24.4095C10.3913 24.1393 9.31667 23.6854 8.34597 23.0795C7.98776 22.1345 8.16823 21.1889 8.13323 20.0936C8.08347 18.5481 7.14886 18.4726 6.00808 17.7759C5.05706 17.1946 4.1837 16.6072 3.47933 15.9313C3.36503 15.3051 3.30542 14.6598 3.30542 14.0003C3.30542 11.8658 3.9305 9.87793 5.00839 8.20886C5.19597 8.45003 5.46995 8.5255 5.93151 8.54628C6.21644 8.25808 6.51722 8.18863 6.8344 8.33792C6.87925 8.44128 6.92409 8.54464 6.96894 8.648C6.94378 8.87769 7.00776 9.07785 7.16034 9.24902C7.49065 9.29933 7.81058 9.25886 8.12066 9.12761C8.58769 9.033 9.10284 8.72019 9.58027 8.70488C11.525 8.64308 10.2857 9.98839 9.6973 10.8514C9.02519 11.8379 8.72276 13.2352 7.47753 13.6929C6.56698 14.0276 5.45737 13.571 5.41526 15.0054C5.3819 16.1369 6.69386 17.3379 7.68316 17.678C8.89394 18.0936 10.452 17.4773 11.6289 18.1893C12.5132 18.7242 12.272 20.4731 12.0538 21.505C11.9422 22.0322 11.6119 22.4943 11.4998 23.0363Z" fill="white"/>
<path d="M12.9251 5.8679C12.656 6.26712 12.2393 6.58376 12.1102 7.04696C11.9724 7.54079 12.1709 8.15821 11.8095 8.52134C11.25 8.1429 11.0066 7.41993 11.0307 6.74563C11.0455 6.34587 11.1056 5.86298 10.7835 5.62563C10.498 5.41509 9.98453 5.47469 9.88445 5.13399C9.8418 4.98852 9.90688 4.82555 9.85602 4.68282C9.80078 4.52587 9.62961 4.44821 9.50383 4.33938C9.49289 4.33008 9.4825 4.31969 9.47266 4.30876C10.6583 3.75422 11.962 3.41079 13.3358 3.32657C13.385 4.20048 13.414 5.14274 12.9251 5.8679Z" fill="white"/>
<path d="M24.6937 14.0003C24.6937 18.3255 22.1261 22.0508 18.4325 23.7352C18.5698 23.3267 18.8361 22.9373 19.0368 22.5468C19.3896 21.8605 19.5553 21.0927 19.6455 20.3265C19.6936 19.9174 19.6778 19.416 19.3229 19.2071C19.138 19.0982 18.9111 19.1042 18.6967 19.101C18.3177 19.0949 17.9398 19.049 17.5707 18.9637C17.1747 18.8718 16.7673 18.7209 16.513 18.4031C16.1335 17.9285 16.2084 17.2481 16.3025 16.6477C16.3993 16.0308 16.4961 15.4145 16.5929 14.7976C16.6722 14.2906 16.8176 13.6967 17.2961 13.5097C17.6237 13.3817 17.989 13.4993 18.3401 13.5256C19.3721 13.6016 20.3307 12.8688 21.3638 12.9235C21.5448 12.9333 21.7297 12.9667 21.9041 12.9191C22.0293 12.8846 22.1409 12.8097 22.2355 12.7206C22.7786 12.2125 22.7605 11.3496 22.6019 10.6228C22.5325 10.3039 22.4368 9.9758 22.2153 9.73627C21.9932 9.49619 21.6115 9.37588 21.3304 9.54268C20.8787 9.81065 20.9263 10.6151 20.4275 10.7808C19.9873 10.9263 19.5323 10.4128 19.0888 10.5473C18.4697 10.7343 18.7027 11.8177 18.152 12.1562C17.8665 12.3312 17.4947 12.2218 17.1972 12.0692C16.8275 11.8789 16.46 11.5798 16.4118 11.1674C16.3479 10.6173 16.8641 10.1869 17.3443 9.91072C17.8244 9.63455 18.3817 9.32666 18.4905 8.78416C18.5272 8.60369 18.5069 8.41557 18.5457 8.23565C18.6573 7.71229 19.2086 7.41588 19.7182 7.25291C20.2279 7.08994 20.7945 6.96471 21.1347 6.55127C21.2167 6.45174 21.2812 6.33963 21.3447 6.22697C23.4069 8.17713 24.6937 10.9383 24.6937 14.0003Z" fill="white"/>
<path d="M22.9861 25.2842C22.9161 25.2842 22.8462 25.2575 22.7927 25.2041L22.1912 24.6025C22.0844 24.4958 22.0844 24.3226 22.1912 24.2159L22.7927 23.6143C22.8996 23.5075 23.0726 23.5075 23.1794 23.6143L23.781 24.2159C23.8878 24.3226 23.8878 24.4958 23.781 24.6025L23.1794 25.2041C23.1261 25.2575 23.0561 25.2842 22.9861 25.2842ZM22.7713 24.4092L22.9861 24.6241L23.201 24.4092L22.9861 24.1943L22.7713 24.4092Z" fill="#2F80ED"/>
<path d="M3.90702 23.2544C3.83702 23.2544 3.76708 23.2277 3.71365 23.1743L3.11209 22.5727C3.00528 22.4659 3.00528 22.2928 3.11209 22.1861L3.71365 21.5845C3.82045 21.4777 3.99354 21.4777 4.10034 21.5845L4.70191 22.1861C4.80871 22.2928 4.80871 22.4659 4.70191 22.5727L4.10034 23.1743C4.04697 23.2276 3.97702 23.2544 3.90702 23.2544ZM3.69216 22.3794L3.90702 22.5942L4.12189 22.3794L3.90702 22.1645L3.69216 22.3794Z" fill="#2F80ED"/>
<path d="M4.18042 5.77965C4.02943 5.77965 3.90698 5.65726 3.90698 5.50621C3.90698 5.32525 3.75982 5.17809 3.57886 5.17809C3.42787 5.17809 3.30542 5.05569 3.30542 4.90465C3.30542 4.7536 3.42787 4.63121 3.57886 4.63121C3.75982 4.63121 3.90698 4.48405 3.90698 4.30309C3.90698 4.15204 4.02943 4.02965 4.18042 4.02965C4.33141 4.02965 4.45386 4.15204 4.45386 4.30309C4.45386 4.48405 4.60102 4.63121 4.78198 4.63121C4.93297 4.63121 5.05542 4.7536 5.05542 4.90465C5.05542 5.05569 4.93297 5.17809 4.78198 5.17809C4.60102 5.17809 4.45386 5.32525 4.45386 5.50621C4.45386 5.65726 4.33141 5.77965 4.18042 5.77965Z" fill="#2F80ED"/>
<path d="M24.6941 22.1489C24.5431 22.1489 24.4207 22.0265 24.4207 21.8755C24.4207 21.6945 24.2734 21.5473 24.0925 21.5473C23.9415 21.5473 23.8191 21.4249 23.8191 21.2739C23.8191 21.1228 23.9415 21.0005 24.0925 21.0005C24.2735 21.0005 24.4207 20.8533 24.4207 20.6723C24.4207 20.5213 24.5431 20.3989 24.6941 20.3989C24.8451 20.3989 24.9675 20.5213 24.9675 20.6723C24.9675 20.8533 25.1147 21.0005 25.2957 21.0005C25.4466 21.0005 25.5691 21.1228 25.5691 21.2739C25.5691 21.4249 25.4466 21.5473 25.2957 21.5473C25.1147 21.5473 24.9675 21.6945 24.9675 21.8755C24.9675 22.0265 24.8451 22.1489 24.6941 22.1489Z" fill="#2F80ED"/>
<path d="M6.5166 4.31589C6.36561 4.31589 6.24316 4.1935 6.24316 4.04245C6.24316 3.86149 6.096 3.71433 5.91504 3.71433C5.76405 3.71433 5.6416 3.59194 5.6416 3.44089C5.6416 3.28984 5.76405 3.16745 5.91504 3.16745C6.096 3.16745 6.24316 3.02029 6.24316 2.83933C6.24316 2.68828 6.36561 2.56589 6.5166 2.56589C6.66759 2.56589 6.79004 2.68828 6.79004 2.83933C6.79004 3.02029 6.9372 3.16745 7.11816 3.16745C7.26916 3.16745 7.3916 3.28984 7.3916 3.44089C7.3916 3.59194 7.26916 3.71433 7.11816 3.71433C6.9372 3.71433 6.79004 3.86149 6.79004 4.04245C6.79004 4.1935 6.66759 4.31589 6.5166 4.31589Z" fill="#2F80ED"/>
<path d="M17.9718 17.9521H14.1565C11.7474 17.9521 9.79443 15.9992 9.79443 13.59C9.79443 11.1809 11.7474 9.22792 14.1565 9.22792C16.5656 9.22792 18.5186 11.1809 18.5186 13.59V17.4052C18.5186 17.7073 18.2738 17.9521 17.9718 17.9521Z" fill="white"/>
<path d="M15.8384 16.0645C15.7283 16.0645 15.6245 15.9976 15.5829 15.8886L14.1568 12.1557L12.7306 15.8886C12.6768 16.0297 12.5186 16.1005 12.3776 16.0465C12.2365 15.9926 12.1659 15.8345 12.2197 15.6935L13.9013 11.292C13.9418 11.1861 14.0434 11.1161 14.1568 11.1161C14.2701 11.1161 14.3717 11.186 14.4122 11.292L16.0938 15.6935C16.1477 15.8345 16.077 15.9926 15.936 16.0465C15.9038 16.0588 15.8708 16.0645 15.8384 16.0645Z" fill="#2626BC"/>
<path d="M14.3214 14.8607H13.019C12.8681 14.8607 12.7456 14.7384 12.7456 14.5873C12.7456 14.4363 12.8681 14.3139 13.019 14.3139H14.3214C14.4724 14.3139 14.5949 14.4363 14.5949 14.5873C14.5949 14.7384 14.4724 14.8607 14.3214 14.8607Z" fill="#2626BC"/>
<path d="M16.8435 12.4932H20.6587C23.0678 12.4932 25.0208 10.5402 25.0208 8.1311C25.0208 5.72201 23.0679 3.76901 20.6587 3.76901C18.2496 3.76901 16.2966 5.72201 16.2966 8.1311V11.9463C16.2966 12.2484 16.5415 12.4932 16.8435 12.4932Z" fill="white"/>
<path d="M20.6589 7.2729C20.5079 7.2729 20.3855 7.15051 20.3855 6.99946V5.80672C20.3855 5.65567 20.5079 5.53328 20.6589 5.53328C20.8099 5.53328 20.9324 5.65567 20.9324 5.80672V6.99946C20.9324 7.15051 20.81 7.2729 20.6589 7.2729Z" fill="#2626BC"/>
<path d="M22.8105 7.41523H18.5076C18.3566 7.41523 18.2341 7.29284 18.2341 7.1418C18.2341 6.99075 18.3566 6.86836 18.5076 6.86836H22.8105C22.9615 6.86836 23.084 6.99075 23.084 7.1418C23.084 7.29284 22.9615 7.41523 22.8105 7.41523Z" fill="#2626BC"/>
<path d="M19.0103 10.7289C18.8837 10.7289 18.77 10.6404 18.7429 10.5115C18.7119 10.3637 18.8067 10.2187 18.9545 10.1877C20.0787 9.95197 20.8748 9.36714 21.3205 8.44943C21.6542 7.76217 21.6581 7.14792 21.6581 7.1418C21.6581 6.99075 21.7806 6.86836 21.9316 6.86836C22.0825 6.86836 22.205 6.99075 22.205 7.1418C22.205 7.17193 22.2006 7.88916 21.8124 8.68836C21.4525 9.42938 20.6841 10.3838 19.0666 10.723C19.0478 10.7269 19.0288 10.7289 19.0103 10.7289Z" fill="#2626BC"/>
<path d="M22.2604 10.7285C22.244 10.7285 22.2272 10.7271 22.2104 10.7239C20.3447 10.3794 19.6127 8.71746 19.5825 8.64691C19.523 8.50811 19.5873 8.34733 19.7261 8.28789C19.8647 8.22844 20.0252 8.29248 20.0849 8.4309C20.0912 8.4455 20.738 9.89591 22.3098 10.1862C22.4583 10.2136 22.5564 10.3562 22.529 10.5047C22.5047 10.6364 22.3897 10.7285 22.2604 10.7285Z" fill="#2626BC"/>
<path d="M25.2954 8.13073C25.2954 7.23008 25.0357 6.35579 24.5444 5.60242C24.462 5.47598 24.2926 5.44016 24.166 5.52274C24.0395 5.60526 24.0038 5.77463 24.0863 5.90117C24.5195 6.56541 24.7485 7.33645 24.7485 8.13073C24.7485 10.3852 22.9143 12.2194 20.6598 12.2194H16.8446C16.6938 12.2194 16.5712 12.0967 16.5712 11.9459V8.13073C16.5712 5.87624 18.4053 4.04207 20.6598 4.04207C21.442 4.04207 22.203 4.26465 22.8608 4.68585C22.988 4.76717 23.1571 4.73015 23.2385 4.603C23.3199 4.47585 23.2829 4.3067 23.1557 4.22528C22.4097 3.74763 21.5467 3.49514 20.6598 3.49514C19.895 3.49514 19.1736 3.68245 18.5371 4.01183C17.1086 3.36181 15.5825 3.03183 14.0002 3.03183C7.96413 3.03183 3.05172 7.93309 3.0328 13.9647C3.03132 13.9763 3.0293 13.9877 3.0293 13.9996C3.0293 14.0115 3.03132 14.0229 3.0328 14.0345C3.05172 20.0662 7.96413 24.9675 14.0002 24.9675C20.0362 24.9675 24.9486 20.0662 24.9675 14.0346C24.969 14.023 24.971 14.0117 24.971 13.9997C24.971 13.9881 24.969 13.9772 24.9676 13.966C24.9643 12.8707 24.8 11.7905 24.4792 10.7536C24.9934 10.0072 25.2954 9.10373 25.2954 8.13073ZM18.7198 12.7662H20.341C20.364 13.0839 20.3783 13.4048 20.3834 13.7262H18.7929V13.5895C18.7929 13.3128 18.7683 13.0369 18.7198 12.7662ZM16.8447 12.7662H18.1628C18.2179 13.0358 18.246 13.312 18.246 13.5895V17.4047C18.246 17.5555 18.1234 17.6782 17.9726 17.6782H17.4362C17.2852 17.6782 17.1628 17.8006 17.1628 17.9516C17.1628 18.1027 17.2852 18.2251 17.4362 18.2251H17.9726C18.4249 18.2251 18.7929 17.8571 18.7929 17.4047V14.2731H20.3843C20.3441 16.8023 19.7488 19.1096 18.7906 20.8831C17.3903 20.4554 15.8505 20.217 14.2736 20.1923V18.225H15.5954C15.7464 18.225 15.8689 18.1026 15.8689 17.9516C15.8689 17.8005 15.7464 17.6781 15.5954 17.6781H14.1574C11.9029 17.6781 10.0687 15.844 10.0687 13.5895C10.0687 11.335 11.9029 9.50081 14.1574 9.50081C14.8071 9.50081 15.4506 9.65667 16.0244 9.95149V11.9458C16.0244 12.3983 16.3924 12.7662 16.8447 12.7662ZM16.0244 8.13073V9.34627C15.4745 9.10466 14.8776 8.97106 14.2736 8.95585V7.80698C14.8716 7.79757 15.4642 7.75732 16.046 7.68781C16.0321 7.83367 16.0244 7.98127 16.0244 8.13073ZM13.7267 7.25999C12.2482 7.23609 10.8054 7.0192 9.48931 6.62999C10.5853 4.84385 12.076 3.70301 13.7267 3.58893V7.25999ZM13.7267 7.80698V8.97472C11.3719 9.19276 9.5218 11.1787 9.5218 13.5895C9.5218 13.6354 9.52393 13.6807 9.52524 13.7262H7.61605C7.65619 11.1971 8.25152 8.88974 9.20975 7.11628C10.6101 7.54393 12.1499 7.78226 13.7267 7.80698ZM9.5726 14.2731C9.88339 16.3666 11.5988 18.0073 13.7267 18.2043V20.1924C12.1499 20.2171 10.6101 20.4555 9.20981 20.8831C8.25157 19.1096 7.65624 16.8023 7.6161 14.2732H9.5726V14.2731ZM13.7267 20.7394V24.4104C12.076 24.2964 10.5853 23.1556 9.48931 21.3694C10.8054 20.9802 12.2482 20.7632 13.7267 20.7394ZM14.2736 20.7394C15.7521 20.7633 17.1949 20.9802 18.511 21.3694C17.4151 23.1555 15.9243 24.2964 14.2736 24.4104V20.7394ZM16.1353 7.12568C15.5258 7.20432 14.903 7.24977 14.2736 7.25999V3.58959C15.3138 3.66281 16.3294 4.1521 17.2286 5.0172C16.6963 5.60324 16.3128 6.32615 16.1353 7.12568ZM17.967 4.36112C17.8471 4.44698 17.7316 4.53836 17.6206 4.63499C17.3572 4.38026 17.0839 4.15473 16.8027 3.95922C17.1973 4.06936 17.5855 4.20373 17.967 4.36112ZM9.05892 6.29306C9.02452 6.3483 8.99073 6.4043 8.95715 6.46052C8.44757 6.28694 7.9597 6.08689 7.49995 5.86092C8.57445 5.00102 9.82187 4.34887 11.1813 3.96638C10.3972 4.51577 9.6782 5.29863 9.05892 6.29306ZM7.04702 6.24478C7.56038 6.51023 8.10878 6.74424 8.68448 6.94494C7.67445 8.84713 7.10751 11.2167 7.06912 13.7262H3.58284C3.65963 10.7593 4.98301 8.09731 7.04702 6.24478ZM3.58284 14.2731H7.06912C7.10751 16.7826 7.67445 19.1522 8.68442 21.0544C8.10873 21.2551 7.56038 21.4891 7.04697 21.7546C4.98301 19.902 3.65963 17.2401 3.58284 14.2731ZM7.49995 22.1384C7.9597 21.9125 8.44752 21.7124 8.95715 21.5388C8.99073 21.5951 9.02452 21.651 9.05892 21.7062C9.6782 22.7007 10.3972 23.4835 11.1814 24.0329C9.82192 23.6505 8.57445 22.9983 7.49995 22.1384ZM18.9414 21.7063C18.9758 21.6511 19.0096 21.5951 19.0432 21.5389C19.5527 21.7125 20.0406 21.9125 20.5004 22.1385C19.4259 22.9984 18.1784 23.6505 16.819 24.033C17.6031 23.4836 18.3221 22.7008 18.9414 21.7063ZM20.9533 21.7546C20.4399 21.4892 19.8915 21.2551 19.3158 21.0544C20.3258 19.1522 20.8928 16.7827 20.9311 14.2731H24.4175C24.3407 17.2401 23.0173 19.902 20.9533 21.7546ZM24.4171 13.7262H20.9303C20.9253 13.4031 20.9115 13.0802 20.889 12.7604C22.1403 12.6992 23.2624 12.1391 24.0613 11.2757C24.2765 12.0726 24.3957 12.8941 24.4171 13.7262Z" fill="#2626BC"/>
</g>
<defs>
<clipPath id="clip0">
<rect width="28" height="28" fill="white"/>
</clipPath>
</defs>
</svg>
