<svg width="272" height="272" viewBox="0 0 272 272" fill="none" xmlns="http://www.w3.org/2000/svg">
<g clip-path="url(#clip0)">
<path d="M244.994 14.531C211.124 -5.64963 167.295 -4.52923 134.031 16.1465C115.341 27.7628 100.894 44.5168 84.5118 58.9397C70.1564 71.5777 53.4629 80.5924 38.6368 92.5169C-15.131 135.762 -10.0007 252.402 65.7103 267.896C98.5294 274.612 143.384 276.766 162.674 244.711C181.065 214.148 187.234 182.882 223.17 166.648C235.693 160.99 256.626 161.275 265.109 148.878C275.815 133.232 262.531 116.98 255.445 103.346C246.312 85.7753 244.397 68.4523 250.823 49.6046C256.294 33.555 260.146 26.3454 244.994 14.531Z" fill="#FCD542"/>
<path opacity="0.1" d="M243.065 91.7413C243.065 68.3386 224.094 49.3666 200.691 49.3666C193.229 49.3666 186.221 51.302 180.132 54.6882C166.736 48.3918 151.779 44.8659 135.996 44.8659C78.6209 44.8659 32.1084 91.3779 32.1084 148.754C32.1084 206.13 78.6209 252.642 135.996 252.642C193.372 252.642 239.885 206.13 239.885 148.754C239.885 137.599 238.119 126.858 234.865 116.787C240.017 109.77 243.065 101.113 243.065 91.7413Z" fill="#2626BC"/>
<path d="M135.996 239.892C193.372 239.892 239.885 193.38 239.885 136.004C239.885 78.6282 193.372 32.1159 135.996 32.1159C78.6207 32.1159 32.1084 78.6282 32.1084 136.004C32.1084 193.38 78.6207 239.892 135.996 239.892Z" fill="#2F80ED"/>
<path d="M111.711 223.781C111.105 226.698 112.067 232.77 112.077 237.121C100.942 234.496 90.5034 230.087 81.0737 224.201C77.594 215.021 79.3471 205.836 79.0071 195.195C78.5237 180.181 69.4446 179.448 58.3628 172.68C49.1243 167.033 40.6403 161.327 33.7978 154.761C32.6875 148.678 32.1084 142.41 32.1084 136.003C32.1084 115.268 38.1806 95.957 48.6515 79.7432C50.4737 82.0861 53.1353 82.8192 57.619 83.0211C60.3868 80.2214 63.3087 79.5467 66.39 80.997C66.8256 82.0011 67.2612 83.0051 67.6968 84.0092C67.4525 86.2404 68.074 88.1848 69.5562 89.8476C72.765 90.3364 75.8728 89.9432 78.885 88.6682C83.4218 87.7492 88.4262 84.7104 93.064 84.5617C111.955 83.9614 99.9172 97.0301 94.2009 105.413C87.6718 114.997 84.734 128.57 72.6375 133.017C63.7922 136.268 53.0131 131.832 52.604 145.767C52.28 156.759 65.0247 168.425 74.635 171.729C86.3968 175.767 101.532 169.78 112.965 176.696C121.555 181.892 119.212 198.881 117.092 208.906C116.009 214.027 112.8 218.516 111.711 223.781Z" fill="white"/>
<path d="M125.554 57.0024C122.941 60.8806 118.893 63.9565 117.639 68.4562C116.3 73.2534 118.228 79.2512 114.717 82.7787C109.282 79.1024 106.918 72.0793 107.152 65.529C107.295 61.6456 107.88 56.9546 104.751 54.649C101.978 52.6037 96.9891 53.1828 96.0169 49.8731C95.6025 48.4599 96.2347 46.8768 95.7407 45.4902C95.2041 43.9656 93.5413 43.2112 92.3194 42.154C92.2132 42.0637 92.1122 41.9627 92.0166 41.8565C103.534 36.4696 116.199 33.1334 129.544 32.3152C130.022 40.8046 130.304 49.9581 125.554 57.0024Z" fill="white"/>
<path d="M239.881 136.003C239.881 178.019 214.938 214.208 179.058 230.57C180.391 226.602 182.978 222.819 184.928 219.026C188.355 212.359 189.964 204.9 190.841 197.458C191.308 193.484 191.154 188.612 187.707 186.583C185.911 185.526 183.706 185.584 181.624 185.552C177.942 185.494 174.271 185.048 170.685 184.219C166.839 183.326 162.881 181.86 160.411 178.773C156.724 174.162 157.452 167.553 158.366 161.72C159.306 155.728 160.246 149.741 161.187 143.748C161.957 138.823 163.37 133.054 168.018 131.237C171.201 129.994 174.749 131.136 178.16 131.391C188.185 132.13 197.498 125.011 207.533 125.542C209.291 125.638 211.087 125.962 212.782 125.5C213.998 125.165 215.082 124.437 216.001 123.571C221.276 118.636 221.101 110.253 219.56 103.192C218.886 100.095 217.956 96.9078 215.804 94.5809C213.648 92.2487 209.939 91.08 207.209 92.7003C202.821 95.3034 203.283 103.118 198.438 104.728C194.161 106.141 189.741 101.152 185.433 102.459C179.419 104.276 181.682 114.8 176.333 118.089C173.559 119.789 169.947 118.726 167.057 117.244C163.466 115.395 159.896 112.489 159.428 108.484C158.807 103.139 163.822 98.9584 168.486 96.2756C173.15 93.5928 178.564 90.6019 179.621 85.3319C179.977 83.5787 179.78 81.7512 180.158 80.0034C181.241 74.9194 186.596 72.04 191.548 70.4569C196.499 68.8737 202.003 67.6572 205.307 63.6409C206.104 62.6741 206.731 61.585 207.347 60.4906C227.38 79.435 239.881 106.258 239.881 136.003Z" fill="white"/>
<path d="M223.292 245.618C222.612 245.618 221.933 245.359 221.414 244.84L215.57 238.996C214.533 237.959 214.533 236.277 215.57 235.24L221.414 229.396C222.451 228.359 224.133 228.359 225.17 229.396L231.014 235.24C232.052 236.277 232.052 237.959 231.014 238.996L225.17 244.84C224.652 245.359 223.972 245.618 223.292 245.618ZM221.205 237.118L223.292 239.205L225.38 237.118L223.292 235.031L221.205 237.118Z" fill="#2F80ED"/>
<path d="M37.9525 225.9C37.2725 225.9 36.5931 225.64 36.0741 225.121L30.2303 219.278C29.1928 218.241 29.1928 216.559 30.2303 215.522L36.0741 209.678C37.1116 208.64 38.793 208.64 39.8305 209.678L45.6743 215.522C46.7118 216.559 46.7118 218.241 45.6743 219.278L39.8305 225.121C39.312 225.64 38.6325 225.9 37.9525 225.9ZM35.8653 217.4L37.9525 219.487L40.0398 217.4L37.9525 215.312L35.8653 217.4Z" fill="#2F80ED"/>
<path d="M40.6084 56.1452C39.1416 56.1452 37.9521 54.9562 37.9521 53.4889C37.9521 51.731 36.5226 50.3014 34.7646 50.3014C33.2979 50.3014 32.1084 49.1125 32.1084 47.6452C32.1084 46.1778 33.2979 44.9889 34.7646 44.9889C36.5226 44.9889 37.9521 43.5593 37.9521 41.8014C37.9521 40.3341 39.1416 39.1452 40.6084 39.1452C42.0752 39.1452 43.2647 40.3341 43.2647 41.8014C43.2647 43.5593 44.6942 44.9889 46.4522 44.9889C47.9189 44.9889 49.1084 46.1778 49.1084 47.6452C49.1084 49.1125 47.9189 50.3014 46.4522 50.3014C44.6942 50.3014 43.2647 51.731 43.2647 53.4889C43.2647 54.9562 42.0752 56.1452 40.6084 56.1452Z" fill="#2F80ED"/>
<path d="M239.884 215.161C238.417 215.161 237.228 213.972 237.228 212.504C237.228 210.747 235.797 209.317 234.04 209.317C232.573 209.317 231.384 208.128 231.384 206.661C231.384 205.193 232.573 204.004 234.04 204.004C235.798 204.004 237.228 202.575 237.228 200.817C237.228 199.35 238.417 198.161 239.884 198.161C241.351 198.161 242.54 199.35 242.54 200.817C242.54 202.575 243.97 204.004 245.728 204.004C247.194 204.004 248.384 205.193 248.384 206.661C248.384 208.128 247.194 209.317 245.728 209.317C243.97 209.317 242.54 210.747 242.54 212.504C242.54 213.972 241.351 215.161 239.884 215.161Z" fill="#2F80ED"/>
<path d="M63.3008 41.9258C61.834 41.9258 60.6445 40.7369 60.6445 39.2696C60.6445 37.5116 59.2149 36.0821 57.457 36.0821C55.9903 36.0821 54.8008 34.8931 54.8008 33.4258C54.8008 31.9585 55.9903 30.7695 57.457 30.7695C59.2149 30.7695 60.6445 29.3399 60.6445 27.582C60.6445 26.1147 61.834 24.9258 63.3008 24.9258C64.7676 24.9258 65.957 26.1147 65.957 27.582C65.957 29.3399 67.3866 30.7695 69.1445 30.7695C70.6113 30.7695 71.8008 31.9585 71.8008 33.4258C71.8008 34.8931 70.6113 36.0821 69.1445 36.0821C67.3866 36.0821 65.957 37.5116 65.957 39.2696C65.957 40.7369 64.7676 41.9258 63.3008 41.9258Z" fill="#2F80ED"/>
<path d="M174.583 174.392H137.521C114.118 174.392 95.1465 155.42 95.1465 132.017C95.1465 108.615 114.118 89.6427 137.521 89.6427C160.924 89.6427 179.896 108.615 179.896 132.017V169.079C179.896 172.014 177.517 174.392 174.583 174.392Z" fill="white"/>
<path d="M153.86 156.055C152.79 156.055 151.782 155.405 151.378 154.346L137.524 118.084L123.67 154.346C123.146 155.717 121.61 156.405 120.24 155.88C118.87 155.357 118.183 153.821 118.707 152.451L135.042 109.694C135.435 108.665 136.422 107.985 137.524 107.985C138.625 107.985 139.612 108.664 140.005 109.694L156.341 152.451C156.864 153.821 156.177 155.357 154.807 155.88C154.495 155.999 154.175 156.055 153.86 156.055Z" fill="#2626BC"/>
<path d="M139.123 144.362H126.472C125.005 144.362 123.815 143.173 123.815 141.705C123.815 140.238 125.005 139.049 126.472 139.049H139.123C140.59 139.049 141.78 140.238 141.78 141.705C141.78 143.173 140.59 144.362 139.123 144.362Z" fill="#2626BC"/>
<path d="M163.621 121.362H200.683C224.086 121.362 243.058 102.391 243.058 78.9879C243.058 55.5853 224.086 36.6133 200.683 36.6133C177.281 36.6133 158.309 55.5853 158.309 78.9879V116.05C158.309 118.984 160.687 121.362 163.621 121.362Z" fill="white"/>
<path d="M200.685 70.651C199.218 70.651 198.028 69.4621 198.028 67.9947V56.4081C198.028 54.9408 199.218 53.7519 200.685 53.7519C202.151 53.7519 203.341 54.9408 203.341 56.4081V67.9947C203.341 69.4621 202.152 70.651 200.685 70.651Z" fill="#2626BC"/>
<path d="M221.587 72.0337H179.786C178.319 72.0337 177.13 70.8447 177.13 69.3775C177.13 67.9102 178.319 66.7213 179.786 66.7213H221.587C223.053 66.7213 224.243 67.9102 224.243 69.3775C224.243 70.8447 223.053 72.0337 221.587 72.0337Z" fill="#2626BC"/>
<path d="M184.67 104.223C183.44 104.223 182.335 103.364 182.073 102.112C181.772 100.676 182.692 99.2672 184.128 98.9665C195.049 96.6763 202.782 90.9951 207.112 82.0802C210.354 75.404 210.392 69.437 210.392 69.3775C210.392 67.9102 211.581 66.7213 213.048 66.7213C214.515 66.7213 215.704 67.9102 215.704 69.3775C215.704 69.6702 215.661 76.6376 211.89 84.4012C208.394 91.5997 200.929 100.872 185.217 104.166C185.034 104.205 184.85 104.223 184.67 104.223Z" fill="#2626BC"/>
<path d="M216.242 104.22C216.083 104.22 215.92 104.206 215.757 104.175C197.633 100.828 190.522 84.6839 190.228 83.9986C189.65 82.6503 190.275 81.0884 191.623 80.5109C192.97 79.9335 194.529 80.5556 195.109 81.9002C195.17 82.042 201.454 96.1318 216.722 98.9516C218.165 99.2183 219.118 100.603 218.852 102.046C218.615 103.325 217.498 104.22 216.242 104.22Z" fill="#2626BC"/>
<path d="M245.727 78.9842C245.727 70.2351 243.204 61.742 238.432 54.4235C237.631 53.1952 235.985 52.8472 234.756 53.6494C233.527 54.4511 233.18 56.0964 233.982 57.3257C238.19 63.7782 240.414 71.2683 240.414 78.9842C240.414 100.885 222.597 118.703 200.696 118.703H163.634C162.169 118.703 160.977 117.511 160.977 116.046V78.9842C160.977 57.0834 178.795 39.2658 200.696 39.2658C208.294 39.2658 215.687 41.428 222.077 45.5197C223.312 46.3097 224.955 45.95 225.746 44.7149C226.537 43.4797 226.177 41.8366 224.941 41.0455C217.695 36.4056 209.311 33.9528 200.696 33.9528C193.266 33.9528 186.258 35.7723 180.075 38.9721C166.199 32.6576 151.374 29.4521 136.002 29.4521C77.3661 29.4521 29.6455 77.0643 29.4617 135.657C29.4474 135.77 29.4277 135.88 29.4277 135.996C29.4277 136.112 29.4474 136.223 29.4617 136.335C29.6455 194.929 77.3661 242.541 136.002 242.541C194.637 242.541 242.358 194.929 242.542 136.336C242.556 136.224 242.576 136.113 242.576 135.997C242.576 135.885 242.556 135.779 242.543 135.67C242.511 125.03 240.915 114.536 237.798 104.464C242.794 97.2125 245.727 88.4362 245.727 78.9842ZM181.85 124.015H197.598C197.822 127.101 197.961 130.218 198.011 133.341H182.559V132.013C182.559 129.324 182.321 126.644 181.85 124.015ZM163.634 124.015H176.439C176.974 126.634 177.248 129.317 177.248 132.013V169.075C177.248 170.539 176.056 171.731 174.591 171.731H169.381C167.914 171.731 166.725 172.92 166.725 174.387C166.725 175.854 167.914 177.043 169.381 177.043H174.591C178.985 177.043 182.56 173.469 182.56 169.075V138.653H198.019C197.629 163.222 191.846 185.636 182.537 202.864C168.935 198.71 153.976 196.394 138.659 196.154V177.043H151.499C152.966 177.043 154.155 175.854 154.155 174.387C154.155 172.919 152.966 171.73 151.499 171.73H137.529C115.628 171.73 97.8108 153.913 97.8108 132.012C97.8108 110.111 115.628 92.2936 137.529 92.2936C143.841 92.2936 150.092 93.8077 155.666 96.6717V116.045C155.665 120.44 159.24 124.015 163.634 124.015ZM155.665 78.9842V90.7923C150.324 88.4452 144.526 87.1474 138.658 86.9997V75.8392C144.467 75.7478 150.224 75.3568 155.876 74.6816C155.741 76.0985 155.665 77.5323 155.665 78.9842ZM133.346 70.5257C118.983 70.2935 104.967 68.1866 92.1822 64.4057C102.828 47.0545 117.31 35.9721 133.346 34.8639V70.5257ZM133.346 75.8392V87.183C110.47 89.3011 92.4977 108.593 92.4977 132.013C92.4977 132.458 92.5185 132.898 92.5312 133.341H73.9847C74.3747 108.772 80.1579 86.3574 89.4664 69.1295C103.07 73.2839 118.028 75.5991 133.346 75.8392ZM92.9913 138.653C96.0104 158.989 112.674 174.928 133.346 176.842V196.155C118.028 196.395 103.07 198.71 89.467 202.865C80.1584 185.636 74.3752 163.222 73.9853 138.654H92.9913V138.653ZM133.346 201.468V237.13C117.31 236.022 102.828 224.94 92.1822 207.588C104.967 203.807 118.983 201.7 133.346 201.468ZM138.658 201.468C153.02 201.7 167.036 203.807 179.821 207.588C169.175 224.939 154.694 236.022 138.658 237.13V201.468ZM156.743 69.2209C150.823 69.9848 144.772 70.4263 138.658 70.5257V34.8703C148.762 35.5816 158.629 40.3347 167.364 48.7386C162.193 54.4314 158.468 61.454 156.743 69.2209ZM174.537 42.3652C173.373 43.1992 172.25 44.0869 171.172 45.0257C168.613 42.5511 165.958 40.3602 163.226 38.461C167.06 39.5309 170.831 40.8362 174.537 42.3652ZM88.0012 61.1326C87.6671 61.6692 87.3388 62.2132 87.0126 62.7593C82.0624 61.0731 77.3231 59.1298 72.8569 56.9347C83.2949 48.5813 95.4127 42.2462 108.619 38.5306C101.001 43.8675 94.0171 51.4724 88.0012 61.1326ZM68.4571 60.6635C73.4439 63.2422 78.7713 65.5154 84.3638 67.4651C74.5521 85.9436 69.0446 108.963 68.6717 133.341H34.805C35.5509 104.519 48.4066 78.6596 68.4571 60.6635ZM34.805 138.653H68.6717C69.0446 163.031 74.5521 186.05 84.3632 204.529C78.7708 206.478 73.4439 208.752 68.4566 211.33C48.4066 193.334 35.5509 167.475 34.805 138.653ZM72.8569 215.059C77.3231 212.865 82.0619 210.921 87.0126 209.235C87.3388 209.781 87.6671 210.324 88.0012 210.861C94.0171 220.521 101.001 228.126 108.62 233.462C95.4132 229.748 83.2949 223.413 72.8569 215.059ZM184.002 210.861C184.337 210.325 184.665 209.781 184.991 209.235C189.941 210.921 194.68 212.865 199.147 215.06C188.709 223.413 176.591 229.748 163.385 233.463C171.002 228.126 177.986 220.522 184.002 210.861ZM203.547 211.33C198.559 208.752 193.232 206.478 187.64 204.529C197.451 186.05 202.958 163.032 203.331 138.653H237.199C236.453 167.475 223.597 193.334 203.547 211.33ZM237.195 133.341H203.323C203.275 130.201 203.141 127.064 202.922 123.958C215.078 123.364 225.978 117.923 233.739 109.535C235.829 117.277 236.987 125.257 237.195 133.341Z" fill="#2626BC"/>
</g>
<defs>
<clipPath id="clip0">
<rect width="272" height="272" fill="white"/>
</clipPath>
</defs>
</svg>
