<svg width="14" height="13" viewBox="0 0 14 13" fill="none" xmlns="http://www.w3.org/2000/svg">
<path d="M12.9635 0.00128757C12.7907 0.0138666 12.6209 0.0544289 12.461 0.121392H12.4589C12.3054 0.182252 11.5756 0.489246 10.4661 0.954583L6.49029 2.62905C3.63741 3.83009 0.832992 5.01282 0.832992 5.01282L0.866385 4.9999C0.866385 4.9999 0.673033 5.06345 0.471063 5.20187C0.346288 5.28127 0.238919 5.38515 0.155452 5.50725C0.0563524 5.65266 -0.0233582 5.8751 0.00626398 6.10507C0.0547367 6.49393 0.306794 6.72714 0.487759 6.85586C0.670878 6.9862 0.84538 7.04706 0.84538 7.04706H0.849689L3.4796 7.93303C3.59755 8.31166 4.28101 10.5586 4.44528 11.0762C4.54223 11.3854 4.63648 11.5787 4.75443 11.7263C4.81152 11.8017 4.87831 11.8647 4.95856 11.9153C5.00027 11.9396 5.04476 11.9588 5.09105 11.9724L5.06412 11.966C5.0722 11.9681 5.07866 11.9746 5.08458 11.9767C5.10613 11.9827 5.12067 11.9848 5.14814 11.9891C5.56446 12.1151 5.89893 11.8566 5.89893 11.8566L5.91778 11.8415L7.47052 10.4278L10.073 12.4243L10.1322 12.4496C10.6746 12.6877 11.2239 12.5552 11.5142 12.3214C11.8067 12.0861 11.9203 11.785 11.9203 11.785L11.9392 11.7365L13.9502 1.43392C14.0073 1.17971 14.0219 0.941658 13.9589 0.710604C13.8939 0.476764 13.7438 0.275647 13.5382 0.146705C13.3656 0.0417433 13.1653 -0.00891941 12.9635 0.00128757ZM12.9092 1.10539C12.907 1.13932 12.9135 1.13555 12.8984 1.20072V1.20664L10.9062 11.4021C10.8975 11.4166 10.883 11.4484 10.8431 11.4802C10.8011 11.5135 10.7677 11.5346 10.5927 11.4651L7.40966 9.02475L5.48691 10.7773L5.89085 8.19748L11.0914 3.35021C11.3058 3.15093 11.2342 3.10892 11.2342 3.10892C11.2492 2.86441 10.9105 3.03729 10.9105 3.03729L4.35265 7.09984L4.35049 7.08907L1.20731 6.03075V6.0286L1.19923 6.02698C1.20474 6.02515 1.21014 6.02299 1.21539 6.02052L1.23262 6.0119L1.24932 6.00598C1.24932 6.00598 4.05589 4.82324 6.90877 3.6222C8.3371 3.0206 9.7762 2.41469 10.883 1.9472C11.9898 1.4824 12.8079 1.14147 12.8542 1.12316C12.8984 1.10593 12.8774 1.10539 12.9092 1.10539Z" fill="white"/>
</svg>
