<svg width="14" height="15" viewBox="0 0 14 15" fill="none" xmlns="http://www.w3.org/2000/svg">
<path d="M11.9547 2.04449C11.3099 1.39378 10.5421 0.877895 9.69602 0.526893C8.8499 0.175892 7.94239 -0.00320315 7.02637 4.33593e-05C3.18797 4.33593e-05 0.0597689 3.12737 0.0562531 6.96664C0.0562531 8.1963 0.377951 9.39256 0.985309 10.4517L0 14.0633L3.69513 13.0947C4.71736 13.651 5.86257 13.9426 7.02637 13.9429H7.02988C10.8692 13.9429 13.9965 10.8156 14 6.97279C14.0009 6.05696 13.8205 5.15001 13.4693 4.30418C13.1182 3.45835 12.604 2.69038 11.9547 2.04449ZM7.02637 12.7634C5.98832 12.7637 4.96935 12.4844 4.07659 11.9547L3.86564 11.8281L1.67353 12.403L2.25891 10.2645L2.1218 10.0439C1.54152 9.12125 1.23462 8.05305 1.23669 6.96313C1.23669 3.77603 3.83576 1.17609 7.02988 1.17609C7.79083 1.17472 8.54452 1.32399 9.2475 1.61529C9.95049 1.90659 10.5889 2.33416 11.1258 2.87335C11.6646 3.41043 12.0918 4.04888 12.3827 4.75188C12.6735 5.45487 12.8223 6.20849 12.8204 6.96928C12.8169 10.1678 10.2179 12.7634 7.02637 12.7634ZM10.2038 8.42659C10.0306 8.33957 9.17541 7.91855 9.01456 7.85878C8.85459 7.80165 8.73769 7.77176 8.62343 7.9458C8.50653 8.11895 8.17252 8.5136 8.07232 8.62699C7.97212 8.74389 7.86841 8.75707 7.69437 8.67093C7.52122 8.58304 6.95957 8.40022 6.29508 7.80516C5.77649 7.34371 5.42931 6.77239 5.32559 6.59924C5.22539 6.4252 5.31592 6.33204 5.40294 6.24502C5.47941 6.16767 5.57609 6.0411 5.66311 5.9409C5.751 5.8407 5.78001 5.76687 5.83714 5.65085C5.89427 5.53307 5.86702 5.43286 5.82396 5.34585C5.78001 5.25883 5.43282 4.40009 5.28604 4.05378C5.1454 3.71187 5.00213 3.75933 4.8949 3.75494C4.7947 3.74879 4.6778 3.74879 4.5609 3.74879C4.47262 3.75098 4.38575 3.7714 4.30573 3.80876C4.22572 3.84612 4.15429 3.89961 4.09593 3.96589C3.93596 4.13992 3.48857 4.56094 3.48857 5.41968C3.48857 6.27842 4.11263 7.10376 4.20053 7.22066C4.28666 7.33756 5.42579 9.09459 7.17403 9.85049C7.58714 10.0307 7.91235 10.137 8.16637 10.2179C8.58388 10.3515 8.96095 10.3313 9.26155 10.2882C9.59555 10.2372 10.2908 9.86631 10.4376 9.45936C10.5817 9.05152 10.5817 8.70346 10.5378 8.6305C10.4947 8.55667 10.3778 8.5136 10.2038 8.42659Z" fill="white"/>
</svg>
