<svg width="138" height="30" viewBox="0 0 138 30" fill="none" xmlns="http://www.w3.org/2000/svg">
<path d="M41.08 21H35.576V20.392C35.7893 20.3067 36.0293 20.2213 36.296 20.136C36.5733 20.04 36.8507 19.9707 37.128 19.928V10.84H35.272L34.248 13.576H33.592C33.5493 13.3627 33.5067 13.0907 33.464 12.76C33.4213 12.4293 33.384 12.088 33.352 11.736C33.32 11.384 33.2933 11.0373 33.272 10.696C33.2507 10.344 33.24 10.0453 33.24 9.8H43.432C43.432 10.056 43.4213 10.3547 43.4 10.696C43.3787 11.0373 43.352 11.384 43.32 11.736C43.288 12.088 43.2507 12.4293 43.208 12.76C43.1653 13.08 43.1227 13.352 43.08 13.576H42.408L41.384 10.84H39.528V19.928C39.8053 19.9813 40.0773 20.0453 40.344 20.12C40.6213 20.1947 40.8667 20.2853 41.08 20.392V21ZM47.7039 19.928C47.9492 19.9813 48.1679 20.0507 48.3599 20.136C48.5519 20.2213 48.7385 20.3067 48.9199 20.392V21H43.9919V20.392C44.2265 20.264 44.4505 20.168 44.6639 20.104C44.8772 20.0293 45.0905 19.9707 45.3039 19.928V10.872C44.7705 10.7547 44.3332 10.6 43.9919 10.408V9.8H45.6879C45.9012 9.8 46.1412 9.79467 46.4079 9.784C46.6852 9.77333 46.9732 9.76267 47.2719 9.752C47.5705 9.73067 47.8745 9.71467 48.1839 9.704C48.4932 9.68267 48.7919 9.672 49.0799 9.672C49.6665 9.672 50.2052 9.74133 50.6959 9.88C51.1972 10.008 51.6239 10.2053 51.9759 10.472C52.3385 10.7387 52.6159 11.0747 52.8079 11.48C53.0105 11.8747 53.1119 12.3387 53.1119 12.872C53.1119 13.64 52.9252 14.2693 52.5519 14.76C52.1785 15.2507 51.6665 15.6187 51.0159 15.864C51.4425 16.536 51.8959 17.224 52.3759 17.928C52.8559 18.6213 53.3625 19.2933 53.8959 19.944L54.6639 20.456V21H51.9919L51.3039 20.472C50.8132 19.8853 50.3759 19.208 49.9919 18.44C49.6185 17.6613 49.2879 16.8987 48.9999 16.152H47.7039V19.928ZM48.5039 10.712C48.1732 10.712 47.9065 10.744 47.7039 10.808V15.272H48.6479C49.1919 15.272 49.6559 15.08 50.0399 14.696C50.4239 14.3013 50.6159 13.72 50.6159 12.952C50.6159 12.5573 50.5625 12.2213 50.4559 11.944C50.3492 11.656 50.1999 11.4213 50.0079 11.24C49.8159 11.0587 49.5919 10.9253 49.3359 10.84C49.0799 10.7547 48.8025 10.712 48.5039 10.712ZM58.7801 21H54.8281V20.392C54.9988 20.2853 55.1801 20.1947 55.3721 20.12C55.5748 20.0347 55.7721 19.9707 55.9641 19.928L60.0921 9.608H61.2761L65.2921 19.928C65.5055 19.9707 65.7188 20.0347 65.9321 20.12C66.1455 20.1947 66.3321 20.2853 66.4921 20.392V21H61.4841V20.392C61.6868 20.296 61.9055 20.2053 62.1401 20.12C62.3748 20.0347 62.5988 19.9707 62.8121 19.928L61.8841 17.384H58.3321L57.3881 19.928C57.8788 19.992 58.3428 20.1467 58.7801 20.392V21ZM58.7161 16.344H61.5481L60.5081 13.288L60.2041 11.912H60.1721L59.8201 13.32L58.7161 16.344ZM74.3244 9.8H78.2924V10.408C78.0897 10.568 77.8657 10.712 77.6204 10.84C77.375 10.9573 77.1457 11.048 76.9324 11.112V21.192H75.5724L69.9244 13.032L69.2844 11.8H69.2364L69.3804 13.08V19.752C69.5937 19.8053 69.8284 19.896 70.0844 20.024C70.351 20.1413 70.575 20.264 70.7564 20.392V21H66.8044V20.392C66.9964 20.264 67.2044 20.1467 67.4284 20.04C67.663 19.9227 67.903 19.8267 68.1484 19.752V11.016C67.935 10.9307 67.7217 10.8347 67.5084 10.728C67.295 10.6213 67.103 10.5093 66.9324 10.392V9.8H70.3884L74.9804 16.456L75.7164 17.832H75.7804L75.7004 16.456V11.112C75.4444 11.0267 75.1937 10.9253 74.9484 10.808C74.7137 10.68 74.5057 10.5467 74.3244 10.408V9.8ZM81.1214 19.672C81.2387 19.7893 81.404 19.9013 81.6174 20.008C81.8307 20.104 82.1134 20.152 82.4654 20.152C83.052 20.152 83.5374 20.0027 83.9214 19.704C84.316 19.3947 84.5134 18.968 84.5134 18.424C84.5134 18.0293 84.3854 17.6987 84.1294 17.432C83.884 17.1653 83.5694 16.92 83.1854 16.696C82.8014 16.472 82.3907 16.2533 81.9534 16.04C81.516 15.816 81.1054 15.5547 80.7214 15.256C80.3374 14.9573 80.0174 14.6053 79.7614 14.2C79.516 13.784 79.3934 13.272 79.3934 12.664C79.3934 12.1413 79.4894 11.688 79.6814 11.304C79.8734 10.92 80.1347 10.6053 80.4654 10.36C80.8067 10.104 81.2067 9.91733 81.6654 9.8C82.124 9.672 82.62 9.608 83.1534 9.608C83.804 9.608 84.4067 9.656 84.9614 9.752C85.5267 9.83733 86.0334 9.976 86.4814 10.168C86.4707 10.3813 86.4494 10.6267 86.4174 10.904C86.396 11.1813 86.364 11.4587 86.3214 11.736C86.2787 12.0027 86.2307 12.2587 86.1774 12.504C86.1347 12.7387 86.092 12.936 86.0494 13.096H85.3934L84.6574 10.904C84.5294 10.84 84.3374 10.7813 84.0814 10.728C83.836 10.6747 83.58 10.648 83.3134 10.648C82.8654 10.648 82.4867 10.7653 82.1774 11C81.868 11.2347 81.7134 11.576 81.7134 12.024C81.7134 12.4293 81.8414 12.776 82.0974 13.064C82.3534 13.3413 82.6734 13.5973 83.0574 13.832C83.4414 14.0667 83.8574 14.3013 84.3054 14.536C84.764 14.76 85.1854 15.0213 85.5694 15.32C85.9534 15.6187 86.2734 15.9707 86.5294 16.376C86.7854 16.7707 86.9134 17.2613 86.9134 17.848C86.9134 18.9147 86.5507 19.7413 85.8254 20.328C85.1107 20.904 84.0547 21.192 82.6574 21.192C82.316 21.192 81.9694 21.1707 81.6174 21.128C81.276 21.0853 80.9507 21.0267 80.6414 20.952C80.332 20.8773 80.0547 20.7973 79.8094 20.712C79.5747 20.6267 79.3987 20.536 79.2814 20.44C79.292 20.1947 79.3187 19.9333 79.3614 19.656C79.404 19.368 79.4467 19.0853 79.4894 18.808C79.5427 18.52 79.596 18.248 79.6494 17.992C79.7027 17.736 79.756 17.512 79.8094 17.32H80.4654L81.1214 19.672ZM87.8513 9.8H93.0993V10.408C92.8753 10.5253 92.6246 10.6267 92.3473 10.712C92.0806 10.7867 91.8193 10.84 91.5633 10.872V19.96H94.6513L95.7233 17.096H96.3793C96.4219 17.3413 96.4593 17.6293 96.4913 17.96C96.5339 18.2907 96.5659 18.6373 96.5873 19C96.6086 19.3627 96.6246 19.72 96.6353 20.072C96.6459 20.424 96.6459 20.7333 96.6353 21H87.8513V20.392C88.0966 20.264 88.3259 20.1627 88.5393 20.088C88.7633 20.0133 88.9713 19.96 89.1633 19.928V10.872C88.6406 10.7867 88.2033 10.632 87.8513 10.408V9.8ZM100.811 21H96.8594V20.392C97.03 20.2853 97.2114 20.1947 97.4034 20.12C97.606 20.0347 97.8034 19.9707 97.9954 19.928L102.123 9.608H103.307L107.323 19.928C107.537 19.9707 107.75 20.0347 107.963 20.12C108.177 20.1947 108.363 20.2853 108.523 20.392V21H103.515V20.392C103.718 20.296 103.937 20.2053 104.171 20.12C104.406 20.0347 104.63 19.9707 104.843 19.928L103.915 17.384H100.363L99.4194 19.928C99.91 19.992 100.374 20.1467 100.811 20.392V21ZM100.747 16.344H103.579L102.539 13.288L102.235 11.912H102.203L101.851 13.32L100.747 16.344ZM115.158 21H109.654V20.392C109.867 20.3067 110.107 20.2213 110.374 20.136C110.651 20.04 110.929 19.9707 111.206 19.928V10.84H109.35L108.326 13.576H107.67C107.627 13.3627 107.585 13.0907 107.542 12.76C107.499 12.4293 107.462 12.088 107.43 11.736C107.398 11.384 107.371 11.0373 107.35 10.696C107.329 10.344 107.318 10.0453 107.318 9.8H117.51C117.51 10.056 117.499 10.3547 117.478 10.696C117.457 11.0373 117.43 11.384 117.398 11.736C117.366 12.088 117.329 12.4293 117.286 12.76C117.243 13.08 117.201 13.352 117.158 13.576H116.486L115.462 10.84H113.606V19.928C113.883 19.9813 114.155 20.0453 114.422 20.12C114.699 20.1947 114.945 20.2853 115.158 20.392V21ZM126.486 9.8C126.465 10.28 126.427 10.776 126.374 11.288C126.321 11.8 126.251 12.28 126.166 12.728H125.51L124.774 10.84H121.782V14.76H123.734L124.438 13.528H124.95C125.003 14.0507 125.03 14.632 125.03 15.272C125.03 15.912 125.003 16.5093 124.95 17.064H124.438L123.734 15.8H121.782V19.96H124.902L125.75 17.928H126.406C126.449 18.1307 126.491 18.36 126.534 18.616C126.577 18.872 126.609 19.1387 126.63 19.416C126.662 19.6827 126.683 19.9547 126.694 20.232C126.715 20.5093 126.726 20.7653 126.726 21H118.07V20.392C118.251 20.296 118.454 20.2053 118.678 20.12C118.902 20.0347 119.137 19.9707 119.382 19.928V10.872C119.169 10.8293 118.939 10.7707 118.694 10.696C118.459 10.6107 118.251 10.5147 118.07 10.408V9.8H126.486ZM135.998 17.624H136.67C136.713 17.848 136.75 18.104 136.782 18.392C136.825 18.6693 136.862 18.9627 136.894 19.272C136.926 19.5707 136.948 19.8693 136.958 20.168C136.98 20.4667 136.99 20.744 136.99 21H127.966V19.96L134.174 10.84H130.206L129.262 13.128H128.59C128.537 12.8933 128.489 12.6267 128.446 12.328C128.404 12.0293 128.366 11.7307 128.334 11.432C128.302 11.1227 128.281 10.8293 128.27 10.552C128.26 10.264 128.254 10.0133 128.254 9.8H136.798V10.84L130.622 19.96H135.006L135.998 17.624Z" fill="#2F80ED"/>
<rect x="33" width="105" height="1" fill="#2F80ED"/>
<rect x="33" y="29" width="105" height="1" fill="#2F80ED"/>
<g clip-path="url(#clip0)">
<path d="M25.22 2.49583C21.7333 0.41842 17.2215 0.533756 13.7972 2.66214C11.8733 3.85794 10.3862 5.58262 8.69972 7.06733C7.22195 8.36829 5.50351 9.29628 3.97729 10.5238C-1.55763 14.9755 -1.02952 26.9826 6.76427 28.5775C10.1427 29.2689 14.7601 29.4906 16.7458 26.1908C18.639 23.0446 19.2741 19.8261 22.9734 18.1549C24.2625 17.5725 26.4173 17.6019 27.2906 16.3256C28.3927 14.715 27.0252 13.042 26.2957 11.6385C25.3557 9.82981 25.1585 8.04656 25.82 6.10636C26.3832 4.45419 26.7797 3.71203 25.22 2.49583Z" fill="#FCD542"/>
<path opacity="0.1" d="M25.0216 10.444C25.0216 8.03486 23.0686 6.08186 20.6595 6.08186C19.8913 6.08186 19.17 6.28108 18.5432 6.62966C17.1641 5.98151 15.6244 5.61855 13.9998 5.61855C8.09348 5.61855 3.30542 10.4065 3.30542 16.3129C3.30542 22.2193 8.09348 27.0073 13.9998 27.0073C19.9061 27.0073 24.6941 22.2193 24.6941 16.3129C24.6941 15.1646 24.5124 14.059 24.1775 13.0222C24.7078 12.2999 25.0216 11.4087 25.0216 10.444Z" fill="#2626BC"/>
<path d="M13.9998 25.6948C19.9061 25.6948 24.6941 20.9067 24.6941 15.0004C24.6941 9.09407 19.9061 4.30605 13.9998 4.30605C8.09345 4.30605 3.30542 9.09407 3.30542 15.0004C3.30542 20.9067 8.09345 25.6948 13.9998 25.6948Z" fill="#2F80ED"/>
<path d="M11.4998 24.0363C11.4375 24.3365 11.5364 24.9616 11.5375 25.4095C10.3913 25.1393 9.31667 24.6854 8.34597 24.0795C7.98776 23.1345 8.16823 22.1889 8.13323 21.0936C8.08347 19.5481 7.14886 19.4726 6.00808 18.7759C5.05706 18.1946 4.1837 17.6072 3.47933 16.9313C3.36503 16.3051 3.30542 15.6598 3.30542 15.0003C3.30542 12.8658 3.9305 10.8779 5.00839 9.20886C5.19597 9.45003 5.46995 9.5255 5.93151 9.54628C6.21644 9.25808 6.51722 9.18863 6.8344 9.33792C6.87925 9.44128 6.92409 9.54464 6.96894 9.648C6.94378 9.87769 7.00776 10.0778 7.16034 10.249C7.49065 10.2993 7.81058 10.2589 8.12066 10.1276C8.58769 10.033 9.10284 9.72019 9.58027 9.70488C11.525 9.64308 10.2857 10.9884 9.6973 11.8514C9.02519 12.8379 8.72276 14.2352 7.47753 14.6929C6.56698 15.0276 5.45737 14.571 5.41526 16.0054C5.3819 17.1369 6.69386 18.3379 7.68316 18.678C8.89394 19.0936 10.452 18.4773 11.6289 19.1893C12.5132 19.7242 12.272 21.4731 12.0538 22.505C11.9422 23.0322 11.6119 23.4943 11.4998 24.0363Z" fill="white"/>
<path d="M12.9251 6.8679C12.656 7.26712 12.2393 7.58376 12.1102 8.04696C11.9724 8.54079 12.1709 9.15821 11.8095 9.52134C11.25 9.1429 11.0066 8.41993 11.0307 7.74563C11.0455 7.34587 11.1056 6.86298 10.7835 6.62563C10.498 6.41509 9.98453 6.47469 9.88445 6.13399C9.8418 5.98852 9.90688 5.82555 9.85602 5.68282C9.80078 5.52587 9.62961 5.44821 9.50383 5.33938C9.49289 5.33008 9.4825 5.31969 9.47266 5.30876C10.6583 4.75422 11.962 4.41079 13.3358 4.32657C13.385 5.20048 13.414 6.14274 12.9251 6.8679Z" fill="white"/>
<path d="M24.6937 15.0003C24.6937 19.3255 22.1261 23.0508 18.4325 24.7352C18.5698 24.3267 18.8361 23.9373 19.0368 23.5468C19.3896 22.8605 19.5553 22.0927 19.6455 21.3265C19.6936 20.9174 19.6778 20.416 19.3229 20.2071C19.138 20.0982 18.9111 20.1042 18.6967 20.101C18.3177 20.0949 17.9398 20.049 17.5707 19.9637C17.1747 19.8718 16.7673 19.7209 16.513 19.4031C16.1335 18.9285 16.2084 18.2481 16.3025 17.6477C16.3993 17.0308 16.4961 16.4145 16.5929 15.7976C16.6722 15.2906 16.8176 14.6967 17.2961 14.5097C17.6237 14.3817 17.989 14.4993 18.3401 14.5256C19.3721 14.6016 20.3307 13.8688 21.3638 13.9235C21.5448 13.9333 21.7297 13.9667 21.9041 13.9191C22.0293 13.8846 22.1409 13.8097 22.2355 13.7206C22.7786 13.2125 22.7605 12.3496 22.6019 11.6228C22.5325 11.3039 22.4368 10.9758 22.2153 10.7363C21.9932 10.4962 21.6115 10.3759 21.3304 10.5427C20.8787 10.8106 20.9263 11.6151 20.4275 11.7808C19.9873 11.9263 19.5323 11.4128 19.0888 11.5473C18.4697 11.7343 18.7027 12.8177 18.152 13.1562C17.8665 13.3312 17.4947 13.2218 17.1972 13.0692C16.8275 12.8789 16.46 12.5798 16.4118 12.1674C16.3479 11.6173 16.8641 11.1869 17.3443 10.9107C17.8244 10.6346 18.3817 10.3267 18.4905 9.78416C18.5272 9.60369 18.5069 9.41557 18.5457 9.23565C18.6573 8.71229 19.2086 8.41588 19.7182 8.25291C20.2279 8.08994 20.7945 7.96471 21.1347 7.55127C21.2167 7.45174 21.2812 7.33963 21.3447 7.22697C23.4069 9.17713 24.6937 11.9383 24.6937 15.0003Z" fill="white"/>
<path d="M22.9861 26.2842C22.9161 26.2842 22.8462 26.2575 22.7927 26.2041L22.1912 25.6025C22.0844 25.4958 22.0844 25.3226 22.1912 25.2159L22.7927 24.6143C22.8996 24.5075 23.0726 24.5075 23.1794 24.6143L23.781 25.2159C23.8878 25.3226 23.8878 25.4958 23.781 25.6025L23.1794 26.2041C23.1261 26.2575 23.0561 26.2842 22.9861 26.2842ZM22.7713 25.4092L22.9861 25.6241L23.201 25.4092L22.9861 25.1943L22.7713 25.4092Z" fill="#2F80ED"/>
<path d="M3.90702 24.2544C3.83702 24.2544 3.76708 24.2277 3.71365 24.1743L3.11209 23.5727C3.00528 23.4659 3.00528 23.2928 3.11209 23.1861L3.71365 22.5845C3.82045 22.4777 3.99354 22.4777 4.10034 22.5845L4.70191 23.1861C4.80871 23.2928 4.80871 23.4659 4.70191 23.5727L4.10034 24.1743C4.04697 24.2276 3.97702 24.2544 3.90702 24.2544ZM3.69216 23.3794L3.90702 23.5942L4.12189 23.3794L3.90702 23.1645L3.69216 23.3794Z" fill="#2F80ED"/>
<path d="M4.18042 6.77965C4.02943 6.77965 3.90698 6.65726 3.90698 6.50621C3.90698 6.32525 3.75982 6.17809 3.57886 6.17809C3.42787 6.17809 3.30542 6.05569 3.30542 5.90465C3.30542 5.7536 3.42787 5.63121 3.57886 5.63121C3.75982 5.63121 3.90698 5.48405 3.90698 5.30309C3.90698 5.15204 4.02943 5.02965 4.18042 5.02965C4.33141 5.02965 4.45386 5.15204 4.45386 5.30309C4.45386 5.48405 4.60102 5.63121 4.78198 5.63121C4.93297 5.63121 5.05542 5.7536 5.05542 5.90465C5.05542 6.05569 4.93297 6.17809 4.78198 6.17809C4.60102 6.17809 4.45386 6.32525 4.45386 6.50621C4.45386 6.65726 4.33141 6.77965 4.18042 6.77965Z" fill="#2F80ED"/>
<path d="M24.6941 23.1489C24.5431 23.1489 24.4207 23.0265 24.4207 22.8755C24.4207 22.6945 24.2734 22.5473 24.0925 22.5473C23.9415 22.5473 23.8191 22.4249 23.8191 22.2739C23.8191 22.1228 23.9415 22.0005 24.0925 22.0005C24.2735 22.0005 24.4207 21.8533 24.4207 21.6723C24.4207 21.5213 24.5431 21.3989 24.6941 21.3989C24.8451 21.3989 24.9675 21.5213 24.9675 21.6723C24.9675 21.8533 25.1147 22.0005 25.2957 22.0005C25.4466 22.0005 25.5691 22.1228 25.5691 22.2739C25.5691 22.4249 25.4466 22.5473 25.2957 22.5473C25.1147 22.5473 24.9675 22.6945 24.9675 22.8755C24.9675 23.0265 24.8451 23.1489 24.6941 23.1489Z" fill="#2F80ED"/>
<path d="M6.5166 5.31589C6.36561 5.31589 6.24316 5.1935 6.24316 5.04245C6.24316 4.86149 6.096 4.71433 5.91504 4.71433C5.76405 4.71433 5.6416 4.59194 5.6416 4.44089C5.6416 4.28984 5.76405 4.16745 5.91504 4.16745C6.096 4.16745 6.24316 4.02029 6.24316 3.83933C6.24316 3.68828 6.36561 3.56589 6.5166 3.56589C6.66759 3.56589 6.79004 3.68828 6.79004 3.83933C6.79004 4.02029 6.9372 4.16745 7.11816 4.16745C7.26916 4.16745 7.3916 4.28984 7.3916 4.44089C7.3916 4.59194 7.26916 4.71433 7.11816 4.71433C6.9372 4.71433 6.79004 4.86149 6.79004 5.04245C6.79004 5.1935 6.66759 5.31589 6.5166 5.31589Z" fill="#2F80ED"/>
<path d="M17.9718 18.9521H14.1565C11.7474 18.9521 9.79443 16.9992 9.79443 14.59C9.79443 12.1809 11.7474 10.2279 14.1565 10.2279C16.5656 10.2279 18.5186 12.1809 18.5186 14.59V18.4052C18.5186 18.7073 18.2738 18.9521 17.9718 18.9521Z" fill="white"/>
<path d="M15.8384 17.0645C15.7283 17.0645 15.6245 16.9976 15.5829 16.8886L14.1568 13.1557L12.7306 16.8886C12.6768 17.0297 12.5186 17.1005 12.3776 17.0465C12.2365 16.9926 12.1659 16.8345 12.2197 16.6935L13.9013 12.292C13.9418 12.1861 14.0434 12.1161 14.1568 12.1161C14.2701 12.1161 14.3717 12.186 14.4122 12.292L16.0938 16.6935C16.1477 16.8345 16.077 16.9926 15.936 17.0465C15.9038 17.0588 15.8708 17.0645 15.8384 17.0645Z" fill="#2626BC"/>
<path d="M14.3214 15.8607H13.019C12.8681 15.8607 12.7456 15.7384 12.7456 15.5873C12.7456 15.4363 12.8681 15.3139 13.019 15.3139H14.3214C14.4724 15.3139 14.5949 15.4363 14.5949 15.5873C14.5949 15.7384 14.4724 15.8607 14.3214 15.8607Z" fill="#2626BC"/>
<path d="M16.8435 13.4932H20.6587C23.0678 13.4932 25.0208 11.5402 25.0208 9.1311C25.0208 6.72201 23.0679 4.76901 20.6587 4.76901C18.2496 4.76901 16.2966 6.72201 16.2966 9.1311V12.9463C16.2966 13.2484 16.5415 13.4932 16.8435 13.4932Z" fill="white"/>
<path d="M20.6589 8.2729C20.5079 8.2729 20.3855 8.15051 20.3855 7.99946V6.80672C20.3855 6.65567 20.5079 6.53328 20.6589 6.53328C20.8099 6.53328 20.9324 6.65567 20.9324 6.80672V7.99946C20.9324 8.15051 20.81 8.2729 20.6589 8.2729Z" fill="#2626BC"/>
<path d="M22.8105 8.41523H18.5076C18.3566 8.41523 18.2341 8.29284 18.2341 8.1418C18.2341 7.99075 18.3566 7.86836 18.5076 7.86836H22.8105C22.9615 7.86836 23.084 7.99075 23.084 8.1418C23.084 8.29284 22.9615 8.41523 22.8105 8.41523Z" fill="#2626BC"/>
<path d="M19.0103 11.7289C18.8837 11.7289 18.77 11.6404 18.7429 11.5115C18.7119 11.3637 18.8067 11.2187 18.9545 11.1877C20.0787 10.952 20.8748 10.3671 21.3205 9.44943C21.6542 8.76217 21.6581 8.14792 21.6581 8.1418C21.6581 7.99075 21.7806 7.86836 21.9316 7.86836C22.0825 7.86836 22.205 7.99075 22.205 8.1418C22.205 8.17193 22.2006 8.88916 21.8124 9.68836C21.4525 10.4294 20.6841 11.3838 19.0666 11.723C19.0478 11.7269 19.0288 11.7289 19.0103 11.7289Z" fill="#2626BC"/>
<path d="M22.2604 11.7285C22.244 11.7285 22.2272 11.7271 22.2104 11.7239C20.3447 11.3794 19.6127 9.71746 19.5825 9.64691C19.523 9.50811 19.5873 9.34733 19.7261 9.28789C19.8647 9.22844 20.0252 9.29248 20.0849 9.4309C20.0912 9.4455 20.738 10.8959 22.3098 11.1862C22.4583 11.2136 22.5564 11.3562 22.529 11.5047C22.5047 11.6364 22.3897 11.7285 22.2604 11.7285Z" fill="#2626BC"/>
<path d="M25.2954 9.13073C25.2954 8.23008 25.0357 7.35579 24.5444 6.60242C24.462 6.47598 24.2926 6.44016 24.166 6.52274C24.0395 6.60526 24.0038 6.77463 24.0863 6.90117C24.5195 7.56541 24.7485 8.33645 24.7485 9.13073C24.7485 11.3852 22.9143 13.2194 20.6598 13.2194H16.8446C16.6938 13.2194 16.5712 13.0967 16.5712 12.9459V9.13073C16.5712 6.87624 18.4053 5.04207 20.6598 5.04207C21.442 5.04207 22.203 5.26465 22.8608 5.68585C22.988 5.76717 23.1571 5.73015 23.2385 5.603C23.3199 5.47585 23.2829 5.3067 23.1557 5.22528C22.4097 4.74763 21.5467 4.49514 20.6598 4.49514C19.895 4.49514 19.1736 4.68245 18.5371 5.01183C17.1086 4.36181 15.5825 4.03183 14.0002 4.03183C7.96413 4.03183 3.05172 8.93309 3.0328 14.9647C3.03132 14.9763 3.0293 14.9877 3.0293 14.9996C3.0293 15.0115 3.03132 15.0229 3.0328 15.0345C3.05172 21.0662 7.96413 25.9675 14.0002 25.9675C20.0362 25.9675 24.9486 21.0662 24.9675 15.0346C24.969 15.023 24.971 15.0117 24.971 14.9997C24.971 14.9881 24.969 14.9772 24.9676 14.966C24.9643 13.8707 24.8 12.7905 24.4792 11.7536C24.9934 11.0072 25.2954 10.1037 25.2954 9.13073ZM18.7198 13.7662H20.341C20.364 14.0839 20.3783 14.4048 20.3834 14.7262H18.7929V14.5895C18.7929 14.3128 18.7683 14.0369 18.7198 13.7662ZM16.8447 13.7662H18.1628C18.2179 14.0358 18.246 14.312 18.246 14.5895V18.4047C18.246 18.5555 18.1234 18.6782 17.9726 18.6782H17.4362C17.2852 18.6782 17.1628 18.8006 17.1628 18.9516C17.1628 19.1027 17.2852 19.2251 17.4362 19.2251H17.9726C18.4249 19.2251 18.7929 18.8571 18.7929 18.4047V15.2731H20.3843C20.3441 17.8023 19.7488 20.1096 18.7906 21.8831C17.3903 21.4554 15.8505 21.217 14.2736 21.1923V19.225H15.5954C15.7464 19.225 15.8689 19.1026 15.8689 18.9516C15.8689 18.8005 15.7464 18.6781 15.5954 18.6781H14.1574C11.9029 18.6781 10.0687 16.844 10.0687 14.5895C10.0687 12.335 11.9029 10.5008 14.1574 10.5008C14.8071 10.5008 15.4506 10.6567 16.0244 10.9515V12.9458C16.0244 13.3983 16.3924 13.7662 16.8447 13.7662ZM16.0244 9.13073V10.3463C15.4745 10.1047 14.8776 9.97106 14.2736 9.95585V8.80698C14.8716 8.79757 15.4642 8.75732 16.046 8.68781C16.0321 8.83367 16.0244 8.98127 16.0244 9.13073ZM13.7267 8.25999C12.2482 8.23609 10.8054 8.0192 9.48931 7.62999C10.5853 5.84385 12.076 4.70301 13.7267 4.58893V8.25999ZM13.7267 8.80698V9.97472C11.3719 10.1928 9.5218 12.1787 9.5218 14.5895C9.5218 14.6354 9.52393 14.6807 9.52524 14.7262H7.61605C7.65619 12.1971 8.25152 9.88974 9.20975 8.11628C10.6101 8.54393 12.1499 8.78226 13.7267 8.80698ZM9.5726 15.2731C9.88339 17.3666 11.5988 19.0073 13.7267 19.2043V21.1924C12.1499 21.2171 10.6101 21.4555 9.20981 21.8831C8.25157 20.1096 7.65624 17.8023 7.6161 15.2732H9.5726V15.2731ZM13.7267 21.7394V25.4104C12.076 25.2964 10.5853 24.1556 9.48931 22.3694C10.8054 21.9802 12.2482 21.7632 13.7267 21.7394ZM14.2736 21.7394C15.7521 21.7633 17.1949 21.9802 18.511 22.3694C17.4151 24.1555 15.9243 25.2964 14.2736 25.4104V21.7394ZM16.1353 8.12568C15.5258 8.20432 14.903 8.24977 14.2736 8.25999V4.58959C15.3138 4.66281 16.3294 5.1521 17.2286 6.0172C16.6963 6.60324 16.3128 7.32615 16.1353 8.12568ZM17.967 5.36112C17.8471 5.44698 17.7316 5.53836 17.6206 5.63499C17.3572 5.38026 17.0839 5.15473 16.8027 4.95922C17.1973 5.06936 17.5855 5.20373 17.967 5.36112ZM9.05892 7.29306C9.02452 7.3483 8.99073 7.4043 8.95715 7.46052C8.44757 7.28694 7.9597 7.08689 7.49995 6.86092C8.57445 6.00102 9.82187 5.34887 11.1813 4.96638C10.3972 5.51577 9.6782 6.29863 9.05892 7.29306ZM7.04702 7.24478C7.56038 7.51023 8.10878 7.74424 8.68448 7.94494C7.67445 9.84713 7.10751 12.2167 7.06912 14.7262H3.58284C3.65963 11.7593 4.98301 9.09731 7.04702 7.24478ZM3.58284 15.2731H7.06912C7.10751 17.7826 7.67445 20.1522 8.68442 22.0544C8.10873 22.2551 7.56038 22.4891 7.04697 22.7546C4.98301 20.902 3.65963 18.2401 3.58284 15.2731ZM7.49995 23.1384C7.9597 22.9125 8.44752 22.7124 8.95715 22.5388C8.99073 22.5951 9.02452 22.651 9.05892 22.7062C9.6782 23.7007 10.3972 24.4835 11.1814 25.0329C9.82192 24.6505 8.57445 23.9983 7.49995 23.1384ZM18.9414 22.7063C18.9758 22.6511 19.0096 22.5951 19.0432 22.5389C19.5527 22.7125 20.0406 22.9125 20.5004 23.1385C19.4259 23.9984 18.1784 24.6505 16.819 25.033C17.6031 24.4836 18.3221 23.7008 18.9414 22.7063ZM20.9533 22.7546C20.4399 22.4892 19.8915 22.2551 19.3158 22.0544C20.3258 20.1522 20.8928 17.7827 20.9311 15.2731H24.4175C24.3407 18.2401 23.0173 20.902 20.9533 22.7546ZM24.4171 14.7262H20.9303C20.9253 14.4031 20.9115 14.0802 20.889 13.7604C22.1403 13.6992 23.2624 13.1391 24.0613 12.2757C24.2765 13.0726 24.3957 13.8941 24.4171 14.7262Z" fill="#2626BC"/>
</g>
<defs>
<clipPath id="clip0">
<rect width="28" height="28" fill="white" transform="translate(0 1)"/>
</clipPath>
</defs>
</svg>
